# xmcd CD database file
#
# Track frame offsets:
#	150
#	15452
#	29813
#	51167
#	73436
#	93641
#	111301
#	129128
#	145696
#	163411
#
# Disc length: 2456 seconds
#
# Revision: 0
# Processed by: cddbd v1.5.2PL0 Copyright (c) Steve Scherf et al.
# Submitted via: CDex 1.51
#
DISCID=9309960a
DTITLE=Anna Ternheim - Leaving on mayday
DYEAR=2008
DGENRE=Rhythmic Soul
TTITLE0=What Have I Done
TTITLE1=Damaged Ones
TTITLE2=Terrified
TTITLE3=Let It Rain
TTITLE4=My Heart Still Beats For You
TTITLE5=No I don't Remember
TTITLE6=Summer Rain
TTITLE7=Losing You
TTITLE8=Off The Road
TTITLE9=Black Sunday Afternoon
EXTD=YEAR: 2008
EXTT0=
EXTT1=
EXTT2=
EXTT3=
EXTT4=
EXTT5=
EXTT6=
EXTT7=
EXTT8=
EXTT9=
PLAYORDER=
